<svg width="259" height="59" viewBox="0 0 259 59" fill="none" xmlns="http://www.w3.org/2000/svg">
<path d="M36.9235 34.5396C36.9235 28.4224 41.8825 16.1689 48 16.1689L48 16.0783C43.1038 16.0783 38.4082 18.0233 34.946 21.4853C31.4838 24.9474 29.5387 29.6429 29.5385 34.5391C29.5385 37.4768 28.3715 40.2943 26.2942 42.3717C24.2169 44.449 21.3995 45.6161 18.4618 45.6161C15.5241 45.6167 12.7062 44.4502 10.6286 42.3733C8.55072 40.2964 7.38325 37.4791 7.38256 34.5414C7.3821 31.6035 8.54864 28.7858 10.6256 26.7081C12.7025 24.6304 15.5197 23.4628 18.4574 23.4622C20.8819 23.4621 23.2826 22.9845 25.5223 22.0567C27.7622 21.1288 29.7974 19.7689 31.5116 18.0545C33.2259 16.3402 34.5857 14.3049 35.5134 12.065C36.4411 9.82513 36.9185 7.42442 36.9184 5L36.8286 5C36.8286 11.1164 24.5804 16.0753 18.462 16.0776L18.462 16.0765C14.8106 16.0765 11.2413 17.1591 8.20525 19.1876C5.16926 21.2162 2.80295 24.0994 1.40564 27.4728C0.0081049 30.8461 -0.357664 34.5581 0.35472 38.1394C1.06687 41.7204 2.8251 45.01 5.40672 47.5921C7.98856 50.174 11.2779 51.9324 14.8592 52.645C18.4403 53.3577 22.1522 52.9921 25.5258 51.595C28.8992 50.198 31.7827 47.8319 33.8115 44.7961C35.8402 41.7601 36.9232 38.1908 36.9235 34.5396Z" fill="url(#paint0_linear_3_6)"/>
<path d="M75.344 16.54C75.0506 17.3027 74.6546 18.4173 74.156 19.884C73.6866 21.3213 73.2173 23.1987 72.748 25.516H71.868C71.956 25.1053 72.0146 24.68 72.044 24.24C72.1026 23.8 72.132 23.3893 72.132 23.008C72.132 21.9227 71.912 20.94 71.472 20.06C71.0613 19.1507 70.4013 18.432 69.492 17.904C68.5826 17.3467 67.38 17.068 65.884 17.068C64.124 17.068 62.6573 17.5227 61.484 18.432C60.3106 19.3413 59.724 20.7493 59.724 22.656C59.724 23.7707 59.988 24.812 60.516 25.78C61.0733 26.7187 61.7626 27.628 62.584 28.508C63.4346 29.3587 64.3293 30.224 65.268 31.104C66.236 31.9547 67.1306 32.8347 67.952 33.744C68.8026 34.6533 69.492 35.6213 70.02 36.648C70.5773 37.6453 70.856 38.76 70.856 39.992C70.856 41.5173 70.5186 42.8227 69.844 43.908C69.1693 44.9933 68.2893 45.888 67.204 46.592C66.1186 47.2667 64.916 47.7653 63.596 48.088C62.3053 48.44 61.0146 48.616 59.724 48.616C58.5506 48.616 57.568 48.4987 56.776 48.264C55.984 48.0587 55.324 47.7947 54.796 47.472C54.268 47.1493 53.828 46.856 53.476 46.592C53.1533 46.328 52.8453 46.152 52.552 46.064C52.288 45.976 52.068 45.932 51.892 45.932C51.5106 45.932 51.188 46.1373 50.924 46.548C50.6893 46.9293 50.4106 47.516 50.088 48.308H49.208C49.472 47.6627 49.7506 46.9147 50.044 46.064C50.3373 45.2133 50.66 44.128 51.012 42.808C51.364 41.4587 51.76 39.772 52.2 37.748H53.08C52.9626 38.364 52.86 38.9653 52.772 39.552C52.684 40.1093 52.6546 40.696 52.684 41.312C52.772 43.3067 53.388 44.876 54.532 46.02C55.676 47.164 57.4506 47.736 59.856 47.736C61.7626 47.736 63.3173 47.296 64.52 46.416C65.7226 45.536 66.324 44.1427 66.324 42.236C66.324 41.004 66.0746 39.904 65.576 38.936C65.1066 37.968 64.476 37.0733 63.684 36.252C62.9213 35.4013 62.1 34.58 61.22 33.788C60.3693 32.996 59.548 32.1747 58.756 31.324C57.9933 30.444 57.3626 29.476 56.864 28.42C56.3946 27.364 56.16 26.1613 56.16 24.812C56.16 23.404 56.4386 22.172 56.996 21.116C57.5533 20.0307 58.2866 19.136 59.196 18.432C60.1346 17.6987 61.176 17.156 62.32 16.804C63.464 16.4227 64.6373 16.232 65.84 16.232C67.072 16.232 68.128 16.3787 69.008 16.672C69.888 16.9653 70.7386 17.4347 71.56 18.08C71.912 18.344 72.2053 18.5493 72.44 18.696C72.6746 18.8133 72.8653 18.872 73.012 18.872C73.4226 18.872 73.9066 18.0947 74.464 16.54H75.344ZM88.5753 25.648C87.4606 25.648 86.3459 26.1027 85.2313 27.012C84.1459 27.9213 83.1486 29.168 82.2393 30.752C81.3299 32.336 80.5966 34.14 80.0393 36.164C79.5113 38.188 79.2473 40.3147 79.2473 42.544C79.2473 44.04 79.5259 45.1253 80.0833 45.8C80.6699 46.4453 81.4179 46.768 82.3273 46.768C83.3833 46.768 84.4686 46.4453 85.5833 45.8C86.6979 45.1547 87.8126 44.0107 88.9273 42.368L89.8073 42.72C89.2499 43.688 88.5166 44.6267 87.6073 45.536C86.6979 46.4453 85.6713 47.1933 84.5273 47.78C83.4126 48.3373 82.2246 48.616 80.9633 48.616C79.2033 48.616 77.7953 48.0733 76.7393 46.988C75.6833 45.9027 75.1553 44.2893 75.1553 42.148C75.1553 40.7987 75.3459 39.3467 75.7273 37.792C76.1379 36.208 76.7099 34.6533 77.4433 33.128C78.2059 31.5733 79.1299 30.18 80.2153 28.948C81.3006 27.6867 82.5326 26.6747 83.9113 25.912C85.2899 25.1493 86.8006 24.768 88.4433 24.768C89.7339 24.768 90.8486 25.1053 91.7873 25.78C92.7259 26.4253 93.1953 27.3347 93.1953 28.508C93.1953 29.0653 93.0633 29.6227 92.7993 30.18C92.5646 30.708 92.2126 31.148 91.7433 31.5C91.2739 31.852 90.7166 32.028 90.0713 32.028C89.4553 32.028 89.0006 31.8667 88.7073 31.544C88.4139 31.192 88.2673 30.7813 88.2673 30.312C88.2673 29.4613 88.6046 28.7427 89.2793 28.156C89.9539 27.54 90.7166 27.1587 91.5673 27.012C91.2739 26.6013 90.8926 26.2787 90.4233 26.044C89.9539 25.78 89.3379 25.648 88.5753 25.648ZM98.6794 48H94.8514L100.131 29.124C100.425 28.1267 100.513 27.4227 100.395 27.012C100.307 26.6013 100.014 26.396 99.5154 26.396C98.8701 26.396 98.2834 26.7333 97.7554 27.408C97.2274 28.0827 96.6701 29.2413 96.0834 30.884L95.5114 32.512H94.6754L95.7754 29.3C96.2154 28.068 96.7288 27.1293 97.3154 26.484C97.9314 25.8387 98.5621 25.3987 99.2074 25.164C99.8821 24.9 100.513 24.768 101.099 24.768C101.979 24.768 102.595 24.9587 102.947 25.34C103.329 25.7213 103.534 26.22 103.563 26.836C103.622 27.452 103.578 28.1267 103.431 28.86C103.314 29.564 103.167 30.2533 102.991 30.928L98.6794 48ZM109.987 25.868C109.313 25.868 108.609 26.1907 107.875 26.836C107.171 27.452 106.438 28.3613 105.675 29.564C104.942 30.7373 104.194 32.16 103.431 33.832C102.698 35.4747 101.965 37.308 101.231 39.332C100.527 41.356 99.8381 43.5413 99.1634 45.888L100.263 40.256C101.231 37.3813 102.126 34.9613 102.947 32.996C103.798 31.0307 104.634 29.4467 105.455 28.244C106.277 27.012 107.113 26.132 107.963 25.604C108.843 25.0467 109.767 24.768 110.735 24.768C111.557 24.768 112.187 25.0027 112.627 25.472C113.097 25.9413 113.331 26.5427 113.331 27.276C113.331 27.8627 113.185 28.4053 112.891 28.904C112.598 29.3733 112.217 29.7547 111.747 30.048C111.307 30.312 110.809 30.444 110.251 30.444C109.753 30.444 109.327 30.312 108.975 30.048C108.653 29.7547 108.491 29.3587 108.491 28.86C108.491 28.3907 108.579 27.98 108.755 27.628C108.931 27.2467 109.166 26.924 109.459 26.66C109.753 26.396 110.09 26.1907 110.471 26.044C110.413 25.9853 110.339 25.9413 110.251 25.912C110.193 25.8827 110.105 25.868 109.987 25.868ZM120.406 17.376C120.552 16.6133 120.934 15.9533 121.55 15.396C122.195 14.8387 122.884 14.56 123.618 14.56C124.38 14.56 124.967 14.8387 125.378 15.396C125.818 15.9533 125.964 16.6133 125.818 17.376C125.671 18.1387 125.275 18.7987 124.63 19.356C124.014 19.9133 123.324 20.192 122.562 20.192C121.828 20.192 121.242 19.9133 120.802 19.356C120.391 18.7987 120.259 18.1387 120.406 17.376ZM119.042 29.124C119.658 27.3053 119.452 26.396 118.426 26.396C117.751 26.396 117.15 26.7627 116.622 27.496C116.094 28.2293 115.536 29.3587 114.95 30.884L114.334 32.512H113.498L114.642 29.3C115.082 28.068 115.61 27.1293 116.226 26.484C116.842 25.8387 117.487 25.3987 118.162 25.164C118.866 24.9 119.511 24.768 120.098 24.768C121.036 24.768 121.726 24.9587 122.166 25.34C122.606 25.7213 122.87 26.22 122.958 26.836C123.046 27.452 123.016 28.1267 122.87 28.86C122.723 29.564 122.532 30.2533 122.298 30.928L117.59 44.26C117.296 45.1107 117.194 45.7853 117.282 46.284C117.399 46.7533 117.736 46.988 118.294 46.988C118.88 46.988 119.438 46.6653 119.966 46.02C120.494 45.3747 121.08 44.2013 121.726 42.5L122.342 40.872H123.178L122.034 44.084C121.623 45.228 121.124 46.1373 120.538 46.812C119.951 47.4573 119.32 47.912 118.646 48.176C117.971 48.4693 117.296 48.616 116.622 48.616C115.36 48.616 114.51 48.3227 114.07 47.736C113.63 47.1493 113.468 46.3867 113.586 45.448C113.703 44.5093 113.952 43.512 114.334 42.456L119.042 29.124ZM141.179 26.176C140.417 26.176 139.551 26.7187 138.583 27.804C137.645 28.86 136.677 30.312 135.679 32.16C134.711 33.9787 133.787 36.032 132.907 38.32C132.057 40.608 131.338 42.984 130.751 45.448L131.499 40.696C132.761 36.8533 133.978 33.7733 135.151 31.456C136.354 29.1093 137.542 27.408 138.715 26.352C139.918 25.296 141.165 24.768 142.455 24.768C143.834 24.768 144.934 25.2813 145.755 26.308C146.606 27.3347 147.031 28.8893 147.031 30.972C147.031 32.292 146.841 33.744 146.459 35.328C146.107 36.912 145.565 38.4813 144.831 40.036C144.127 41.5907 143.247 43.028 142.191 44.348C141.165 45.6387 139.977 46.68 138.627 47.472C137.278 48.2347 135.782 48.616 134.139 48.616C133.259 48.616 132.467 48.352 131.763 47.824C131.089 47.296 130.634 46.5333 130.399 45.536L130.751 44.656C131.162 45.7413 131.631 46.504 132.159 46.944C132.717 47.384 133.362 47.604 134.095 47.604C135.093 47.604 136.046 47.2227 136.955 46.46C137.865 45.668 138.701 44.6267 139.463 43.336C140.226 42.0453 140.886 40.6227 141.443 39.068C142.03 37.484 142.47 35.9147 142.763 34.36C143.086 32.776 143.247 31.324 143.247 30.004C143.247 28.7133 143.057 27.76 142.675 27.144C142.323 26.4987 141.825 26.176 141.179 26.176ZM130.927 45.272C130.223 45.8293 129.519 46.4013 128.815 46.988C128.111 47.5453 127.407 48.1173 126.703 48.704L126.043 48.396C126.249 47.9853 126.41 47.5747 126.527 47.164C126.674 46.724 126.791 46.284 126.879 45.844L134.579 18.652C134.814 17.6547 134.77 16.9213 134.447 16.452C134.125 15.9827 133.245 15.748 131.807 15.748L132.027 14.824C133.641 14.7947 135.063 14.6333 136.295 14.34C137.527 14.0173 138.686 13.5773 139.771 13.02L130.927 45.272ZM163.351 26.176C162.589 26.176 161.723 26.7187 160.755 27.804C159.817 28.86 158.849 30.312 157.851 32.16C156.883 33.9787 155.959 36.032 155.079 38.32C154.229 40.608 153.51 42.984 152.923 45.448L153.671 40.696C154.933 36.8533 156.15 33.7733 157.323 31.456C158.526 29.1093 159.714 27.408 160.887 26.352C162.09 25.296 163.337 24.768 164.627 24.768C166.006 24.768 167.106 25.2813 167.927 26.308C168.778 27.3347 169.203 28.8893 169.203 30.972C169.203 32.292 169.013 33.744 168.631 35.328C168.279 36.912 167.737 38.4813 167.003 40.036C166.299 41.5907 165.419 43.028 164.363 44.348C163.337 45.6387 162.149 46.68 160.799 47.472C159.45 48.2347 157.954 48.616 156.311 48.616C155.431 48.616 154.639 48.352 153.935 47.824C153.261 47.296 152.806 46.5333 152.571 45.536L152.923 44.656C153.334 45.7413 153.803 46.504 154.331 46.944C154.889 47.384 155.534 47.604 156.267 47.604C157.265 47.604 158.218 47.2227 159.127 46.46C160.037 45.668 160.873 44.6267 161.635 43.336C162.398 42.0453 163.058 40.6227 163.615 39.068C164.202 37.484 164.642 35.9147 164.935 34.36C165.258 32.776 165.419 31.324 165.419 30.004C165.419 28.7133 165.229 27.76 164.847 27.144C164.495 26.4987 163.997 26.176 163.351 26.176ZM153.099 45.272C152.395 45.8293 151.691 46.4013 150.987 46.988C150.283 47.5453 149.579 48.1173 148.875 48.704L148.215 48.396C148.421 47.9853 148.582 47.5747 148.699 47.164C148.846 46.724 148.963 46.284 149.051 45.844L156.751 18.652C156.986 17.6547 156.942 16.9213 156.619 16.452C156.297 15.9827 155.417 15.748 153.979 15.748L154.199 14.824C155.813 14.7947 157.235 14.6333 158.467 14.34C159.699 14.0173 160.858 13.5773 161.943 13.02L153.099 45.272ZM175.359 44.26C175.124 45.1107 175.051 45.7853 175.139 46.284C175.227 46.7533 175.55 46.988 176.107 46.988C176.694 46.988 177.236 46.6653 177.735 46.02C178.263 45.3453 178.82 44.172 179.407 42.5L179.979 40.872H180.815L179.715 44.084C179.334 45.1987 178.864 46.0933 178.307 46.768C177.779 47.4133 177.192 47.8827 176.547 48.176C175.902 48.4693 175.198 48.616 174.435 48.616C173.467 48.616 172.748 48.4253 172.279 48.044C171.839 47.692 171.56 47.208 171.443 46.592C171.355 45.976 171.37 45.316 171.487 44.612C171.634 43.8787 171.81 43.16 172.015 42.456L179.187 18.652C179.48 17.6547 179.451 16.9213 179.099 16.452C178.747 15.9827 177.852 15.748 176.415 15.748L176.723 14.824C178.336 14.7947 179.759 14.6333 180.991 14.34C182.223 14.0173 183.411 13.5773 184.555 13.02L175.359 44.26ZM186.77 38.012C188.413 37.4547 189.894 36.912 191.214 36.384C192.564 35.8267 193.634 35.24 194.426 34.624C195.482 33.7733 196.318 32.7467 196.934 31.544C197.55 30.3413 197.858 29.0213 197.858 27.584C197.858 26.7333 197.8 26.1907 197.682 25.956C197.565 25.7213 197.389 25.604 197.154 25.604C196.421 25.604 195.629 25.9267 194.778 26.572C193.928 27.2173 193.092 28.112 192.27 29.256C191.449 30.3707 190.686 31.6467 189.982 33.084C189.308 34.5213 188.765 36.0613 188.354 37.704C187.944 39.3173 187.738 40.9307 187.738 42.544C187.738 44.04 188.017 45.1253 188.574 45.8C189.132 46.4453 189.865 46.768 190.774 46.768C191.83 46.768 192.945 46.4453 194.118 45.8C195.292 45.1547 196.436 44.0107 197.55 42.368L198.254 42.72C197.697 43.688 196.964 44.6267 196.054 45.536C195.145 46.4453 194.118 47.1933 192.974 47.78C191.86 48.3373 190.672 48.616 189.41 48.616C188.237 48.616 187.21 48.3813 186.33 47.912C185.45 47.4427 184.776 46.7533 184.306 45.844C183.837 44.9053 183.602 43.7613 183.602 42.412C183.602 41.1507 183.837 39.7427 184.306 38.188C184.776 36.604 185.436 35.0347 186.286 33.48C187.166 31.896 188.208 30.444 189.41 29.124C190.613 27.804 191.948 26.748 193.414 25.956C194.881 25.164 196.45 24.768 198.122 24.768C199.032 24.768 199.794 25.0173 200.41 25.516C201.056 25.9853 201.378 26.704 201.378 27.672C201.378 28.8453 201.026 29.9453 200.322 30.972C199.648 31.9693 198.738 32.8933 197.594 33.744C196.48 34.5653 195.262 35.2987 193.942 35.944C192.622 36.5893 191.332 37.1467 190.07 37.616C188.809 38.0853 187.694 38.4667 186.726 38.76L186.77 38.012ZM216.586 40.872C215.501 42.3973 214.841 43.6147 214.606 44.524C214.401 45.4333 214.577 46.0933 215.134 46.504C215.692 46.8853 216.572 47.0907 217.774 47.12L217.554 48C216.733 47.9413 215.882 47.912 215.002 47.912C214.122 47.8827 213.301 47.868 212.538 47.868C211.805 47.868 211.189 47.8827 210.69 47.912C210.192 47.912 209.708 47.9413 209.238 48L209.458 47.12C209.869 47.032 210.294 46.856 210.734 46.592C211.174 46.2987 211.658 45.888 212.186 45.36C212.714 44.832 213.272 44.1427 213.858 43.292L232.822 16.628C232.94 16.628 233.042 16.628 233.13 16.628C233.248 16.628 233.365 16.628 233.482 16.628L235.242 44.304C235.33 45.36 235.594 46.0933 236.034 46.504C236.504 46.8853 236.958 47.0907 237.398 47.12L237.222 48C236.636 47.9413 235.902 47.912 235.022 47.912C234.142 47.8827 233.277 47.868 232.426 47.868C231.37 47.868 230.373 47.8827 229.434 47.912C228.496 47.912 227.733 47.9413 227.146 48L227.322 47.12C228.73 47.0613 229.728 46.812 230.314 46.372C230.901 45.9027 231.165 44.92 231.106 43.424L229.918 21.688L230.226 21.6L216.586 40.872ZM220.106 35.328H232.954L232.602 36.208H219.314L220.106 35.328ZM248.042 43.336C247.778 44.392 247.661 45.184 247.69 45.712C247.72 46.24 247.969 46.592 248.438 46.768C248.908 46.944 249.641 47.0613 250.638 47.12L250.462 48C249.788 47.9413 248.937 47.912 247.91 47.912C246.913 47.8827 245.901 47.868 244.874 47.868C243.73 47.868 242.674 47.8827 241.706 47.912C240.738 47.912 239.932 47.9413 239.286 48L239.506 47.12C240.474 47.0613 241.222 46.944 241.75 46.768C242.308 46.592 242.748 46.24 243.07 45.712C243.393 45.184 243.686 44.392 243.95 43.336L249.758 21.512C250.052 20.4267 250.169 19.6347 250.11 19.136C250.052 18.608 249.788 18.256 249.318 18.08C248.878 17.8747 248.16 17.7573 247.162 17.728L247.382 16.848C247.969 16.8773 248.761 16.9067 249.758 16.936C250.756 16.9653 251.826 16.98 252.97 16.98C253.997 16.98 255.009 16.9653 256.006 16.936C257.033 16.9067 257.898 16.8773 258.602 16.848L258.382 17.728C257.385 17.7573 256.608 17.8747 256.05 18.08C255.493 18.256 255.053 18.608 254.73 19.136C254.437 19.6347 254.144 20.4267 253.85 21.512L248.042 43.336Z" fill="#D4D4D4"/>
<defs>
<linearGradient id="paint0_linear_3_6" x1="46" y1="7" x2="-9.5" y2="65.5" gradientUnits="userSpaceOnUse">
<stop stop-color="#FFB900"/>
<stop offset="1" stop-color="#973C00"/>
</linearGradient>
</defs>
</svg>
