<svg width="243" height="53" viewBox="0 0 243 53" fill="none" xmlns="http://www.w3.org/2000/svg">
<path d="M36.9235 32.5396C36.9235 26.4224 41.8825 14.1689 48 14.1689L48 14.0783C43.1038 14.0783 38.4082 16.0233 34.946 19.4853C31.4838 22.9474 29.5387 27.6429 29.5385 32.5391C29.5385 35.4768 28.3715 38.2943 26.2942 40.3717C24.2169 42.449 21.3995 43.6161 18.4618 43.6161C15.5241 43.6167 12.7062 42.4502 10.6286 40.3733C8.55072 38.2964 7.38325 35.4791 7.38256 32.5414C7.3821 29.6035 8.54864 26.7858 10.6256 24.7081C12.7025 22.6304 15.5197 21.4628 18.4574 21.4622C20.8819 21.4621 23.2826 20.9845 25.5223 20.0567C27.7622 19.1288 29.7974 17.7689 31.5116 16.0545C33.2259 14.3402 34.5857 12.3049 35.5134 10.065C36.4411 7.82513 36.9185 5.42442 36.9184 3L36.8286 3C36.8286 9.11637 24.5804 14.0753 18.462 14.0776L18.462 14.0765C14.8106 14.0765 11.2413 15.1591 8.20525 17.1876C5.16926 19.2162 2.80295 22.0994 1.40564 25.4728C0.0081049 28.8461 -0.357664 32.5581 0.35472 36.1394C1.06687 39.7204 2.8251 43.01 5.40672 45.5921C7.98856 48.174 11.2779 49.9324 14.8592 50.645C18.4403 51.3577 22.1522 50.9921 25.5258 49.595C28.8992 48.198 31.7827 45.8319 33.8115 42.7961C35.8402 39.7601 36.9232 36.1908 36.9235 32.5396Z" fill="url(#paint0_linear_3_6)"/>
<path d="M76.04 14.4C75.7733 15.0933 75.4133 16.1067 74.96 17.44C74.5333 18.7467 74.1067 20.4533 73.68 22.56H72.88C72.96 22.1867 73.0133 21.8 73.04 21.4C73.0933 21 73.12 20.6267 73.12 20.28C73.12 19.2933 72.92 18.4 72.52 17.6C72.1467 16.7733 71.5467 16.12 70.72 15.64C69.8933 15.1333 68.8 14.88 67.44 14.88C65.84 14.88 64.5067 15.2933 63.44 16.12C62.3733 16.9467 61.84 18.2267 61.84 19.96C61.84 20.9733 62.08 21.92 62.56 22.8C63.0667 23.6533 63.6933 24.48 64.44 25.28C65.2133 26.0533 66.0267 26.84 66.88 27.64C67.76 28.4133 68.5733 29.2133 69.32 30.04C70.0933 30.8667 70.72 31.7467 71.2 32.68C71.7067 33.5867 71.96 34.6 71.96 35.72C71.96 37.1067 71.6533 38.2933 71.04 39.28C70.4267 40.2667 69.6267 41.08 68.64 41.72C67.6533 42.3333 66.56 42.7867 65.36 43.08C64.1867 43.4 63.0133 43.56 61.84 43.56C60.7733 43.56 59.88 43.4533 59.16 43.24C58.44 43.0533 57.84 42.8133 57.36 42.52C56.88 42.2267 56.48 41.96 56.16 41.72C55.8667 41.48 55.5867 41.32 55.32 41.24C55.08 41.16 54.88 41.12 54.72 41.12C54.3733 41.12 54.08 41.3067 53.84 41.68C53.6267 42.0267 53.3733 42.56 53.08 43.28H52.28C52.52 42.6933 52.7733 42.0133 53.04 41.24C53.3067 40.4667 53.6 39.48 53.92 38.28C54.24 37.0533 54.6 35.52 55 33.68H55.8C55.6933 34.24 55.6 34.7867 55.52 35.32C55.44 35.8267 55.4133 36.36 55.44 36.92C55.52 38.7333 56.08 40.16 57.12 41.2C58.16 42.24 59.7733 42.76 61.96 42.76C63.6933 42.76 65.1067 42.36 66.2 41.56C67.2933 40.76 67.84 39.4933 67.84 37.76C67.84 36.64 67.6133 35.64 67.16 34.76C66.7333 33.88 66.16 33.0667 65.44 32.32C64.7467 31.5467 64 30.8 63.2 30.08C62.4267 29.36 61.68 28.6133 60.96 27.84C60.2667 27.04 59.6933 26.16 59.24 25.2C58.8133 24.24 58.6 23.1467 58.6 21.92C58.6 20.64 58.8533 19.52 59.36 18.56C59.8667 17.5733 60.5333 16.76 61.36 16.12C62.2133 15.4533 63.16 14.96 64.2 14.64C65.24 14.2933 66.3067 14.12 67.4 14.12C68.52 14.12 69.48 14.2533 70.28 14.52C71.08 14.7867 71.8533 15.2133 72.6 15.8C72.92 16.04 73.1867 16.2267 73.4 16.36C73.6133 16.4667 73.7867 16.52 73.92 16.52C74.2933 16.52 74.7333 15.8133 75.24 14.4H76.04ZM88.0684 22.68C87.0551 22.68 86.0418 23.0933 85.0284 23.92C84.0418 24.7467 83.1351 25.88 82.3084 27.32C81.4818 28.76 80.8151 30.4 80.3084 32.24C79.8284 34.08 79.5884 36.0133 79.5884 38.04C79.5884 39.4 79.8418 40.3867 80.3484 41C80.8818 41.5867 81.5618 41.88 82.3884 41.88C83.3484 41.88 84.3351 41.5867 85.3484 41C86.3618 40.4133 87.3751 39.3733 88.3884 37.88L89.1884 38.2C88.6818 39.08 88.0151 39.9333 87.1884 40.76C86.3618 41.5867 85.4284 42.2667 84.3884 42.8C83.3751 43.3067 82.2951 43.56 81.1484 43.56C79.5484 43.56 78.2684 43.0667 77.3084 42.08C76.3484 41.0933 75.8684 39.6267 75.8684 37.68C75.8684 36.4533 76.0418 35.1333 76.3884 33.72C76.7618 32.28 77.2818 30.8667 77.9484 29.48C78.6418 28.0667 79.4818 26.8 80.4684 25.68C81.4551 24.5333 82.5751 23.6133 83.8284 22.92C85.0818 22.2267 86.4551 21.88 87.9484 21.88C89.1218 21.88 90.1351 22.1867 90.9884 22.8C91.8418 23.3867 92.2684 24.2133 92.2684 25.28C92.2684 25.7867 92.1484 26.2933 91.9084 26.8C91.6951 27.28 91.3751 27.68 90.9484 28C90.5218 28.32 90.0151 28.48 89.4284 28.48C88.8684 28.48 88.4551 28.3333 88.1884 28.04C87.9218 27.72 87.7884 27.3467 87.7884 26.92C87.7884 26.1467 88.0951 25.4933 88.7084 24.96C89.3218 24.4 90.0151 24.0533 90.7884 23.92C90.5218 23.5467 90.1751 23.2533 89.7484 23.04C89.3218 22.8 88.7618 22.68 88.0684 22.68ZM97.2541 43H93.7741L98.5741 25.84C98.8407 24.9333 98.9207 24.2933 98.8141 23.92C98.7341 23.5467 98.4674 23.36 98.0141 23.36C97.4274 23.36 96.8941 23.6667 96.4141 24.28C95.9341 24.8933 95.4274 25.9467 94.8941 27.44L94.3741 28.92H93.6141L94.6141 26C95.0141 24.88 95.4807 24.0267 96.0141 23.44C96.5741 22.8533 97.1474 22.4533 97.7341 22.24C98.3474 22 98.9207 21.88 99.4541 21.88C100.254 21.88 100.814 22.0533 101.134 22.4C101.481 22.7467 101.667 23.2 101.694 23.76C101.747 24.32 101.707 24.9333 101.574 25.6C101.467 26.24 101.334 26.8667 101.174 27.48L97.2541 43ZM107.534 22.88C106.921 22.88 106.281 23.1733 105.614 23.76C104.974 24.32 104.307 25.1467 103.614 26.24C102.947 27.3067 102.267 28.6 101.574 30.12C100.907 31.6133 100.241 33.28 99.5741 35.12C98.9341 36.96 98.3074 38.9467 97.6941 41.08L98.6941 35.96C99.5741 33.3467 100.387 31.1467 101.134 29.36C101.907 27.5733 102.667 26.1333 103.414 25.04C104.161 23.92 104.921 23.12 105.694 22.64C106.494 22.1333 107.334 21.88 108.214 21.88C108.961 21.88 109.534 22.0933 109.934 22.52C110.361 22.9467 110.574 23.4933 110.574 24.16C110.574 24.6933 110.441 25.1867 110.174 25.64C109.907 26.0667 109.561 26.4133 109.134 26.68C108.734 26.92 108.281 27.04 107.774 27.04C107.321 27.04 106.934 26.92 106.614 26.68C106.321 26.4133 106.174 26.0533 106.174 25.6C106.174 25.1733 106.254 24.8 106.414 24.48C106.574 24.1333 106.787 23.84 107.054 23.6C107.321 23.36 107.627 23.1733 107.974 23.04C107.921 22.9867 107.854 22.9467 107.774 22.92C107.721 22.8933 107.641 22.88 107.534 22.88ZM117.005 15.16C117.139 14.4667 117.485 13.8667 118.045 13.36C118.632 12.8533 119.259 12.6 119.925 12.6C120.619 12.6 121.152 12.8533 121.525 13.36C121.925 13.8667 122.059 14.4667 121.925 15.16C121.792 15.8533 121.432 16.4533 120.845 16.96C120.285 17.4667 119.659 17.72 118.965 17.72C118.299 17.72 117.765 17.4667 117.365 16.96C116.992 16.4533 116.872 15.8533 117.005 15.16ZM115.765 25.84C116.325 24.1867 116.139 23.36 115.205 23.36C114.592 23.36 114.045 23.6933 113.565 24.36C113.085 25.0267 112.579 26.0533 112.045 27.44L111.485 28.92H110.725L111.765 26C112.165 24.88 112.645 24.0267 113.205 23.44C113.765 22.8533 114.352 22.4533 114.965 22.24C115.605 22 116.192 21.88 116.725 21.88C117.579 21.88 118.205 22.0533 118.605 22.4C119.005 22.7467 119.245 23.2 119.325 23.76C119.405 24.32 119.379 24.9333 119.245 25.6C119.112 26.24 118.939 26.8667 118.725 27.48L114.445 39.6C114.179 40.3733 114.085 40.9867 114.165 41.44C114.272 41.8667 114.579 42.08 115.085 42.08C115.619 42.08 116.125 41.7867 116.605 41.2C117.085 40.6133 117.619 39.5467 118.205 38L118.765 36.52H119.525L118.485 39.44C118.112 40.48 117.659 41.3067 117.125 41.92C116.592 42.5067 116.019 42.92 115.405 43.16C114.792 43.4267 114.179 43.56 113.565 43.56C112.419 43.56 111.645 43.2933 111.245 42.76C110.845 42.2267 110.699 41.5333 110.805 40.68C110.912 39.8267 111.139 38.92 111.485 37.96L115.765 25.84ZM135.89 23.16C135.197 23.16 134.41 23.6533 133.53 24.64C132.677 25.6 131.797 26.92 130.89 28.6C130.01 30.2533 129.17 32.12 128.37 34.2C127.597 36.28 126.944 38.44 126.41 40.68L127.09 36.36C128.237 32.8667 129.344 30.0667 130.41 27.96C131.504 25.8267 132.584 24.28 133.65 23.32C134.744 22.36 135.877 21.88 137.05 21.88C138.304 21.88 139.304 22.3467 140.05 23.28C140.824 24.2133 141.21 25.6267 141.21 27.52C141.21 28.72 141.037 30.04 140.69 31.48C140.37 32.92 139.877 34.3467 139.21 35.76C138.57 37.1733 137.77 38.48 136.81 39.68C135.877 40.8533 134.797 41.8 133.57 42.52C132.344 43.2133 130.984 43.56 129.49 43.56C128.69 43.56 127.97 43.32 127.33 42.84C126.717 42.36 126.304 41.6667 126.09 40.76L126.41 39.96C126.784 40.9467 127.21 41.64 127.69 42.04C128.197 42.44 128.784 42.64 129.45 42.64C130.357 42.64 131.224 42.2933 132.05 41.6C132.877 40.88 133.637 39.9333 134.33 38.76C135.024 37.5867 135.624 36.2933 136.13 34.88C136.664 33.44 137.064 32.0133 137.33 30.6C137.624 29.16 137.77 27.84 137.77 26.64C137.77 25.4667 137.597 24.6 137.25 24.04C136.93 23.4533 136.477 23.16 135.89 23.16ZM126.57 40.52C125.93 41.0267 125.29 41.5467 124.65 42.08C124.01 42.5867 123.37 43.1067 122.73 43.64L122.13 43.36C122.317 42.9867 122.464 42.6133 122.57 42.24C122.704 41.84 122.81 41.44 122.89 41.04L129.89 16.32C130.104 15.4133 130.064 14.7467 129.77 14.32C129.477 13.8933 128.677 13.68 127.37 13.68L127.57 12.84C129.037 12.8133 130.33 12.6667 131.45 12.4C132.57 12.1067 133.624 11.7067 134.61 11.2L126.57 40.52ZM156.047 23.16C155.353 23.16 154.567 23.6533 153.687 24.64C152.833 25.6 151.953 26.92 151.047 28.6C150.167 30.2533 149.327 32.12 148.527 34.2C147.753 36.28 147.1 38.44 146.567 40.68L147.247 36.36C148.393 32.8667 149.5 30.0667 150.567 27.96C151.66 25.8267 152.74 24.28 153.807 23.32C154.9 22.36 156.033 21.88 157.207 21.88C158.46 21.88 159.46 22.3467 160.207 23.28C160.98 24.2133 161.367 25.6267 161.367 27.52C161.367 28.72 161.193 30.04 160.847 31.48C160.527 32.92 160.033 34.3467 159.367 35.76C158.727 37.1733 157.927 38.48 156.967 39.68C156.033 40.8533 154.953 41.8 153.727 42.52C152.5 43.2133 151.14 43.56 149.647 43.56C148.847 43.56 148.127 43.32 147.487 42.84C146.873 42.36 146.46 41.6667 146.247 40.76L146.567 39.96C146.94 40.9467 147.367 41.64 147.847 42.04C148.353 42.44 148.94 42.64 149.607 42.64C150.513 42.64 151.38 42.2933 152.207 41.6C153.033 40.88 153.793 39.9333 154.487 38.76C155.18 37.5867 155.78 36.2933 156.287 34.88C156.82 33.44 157.22 32.0133 157.487 30.6C157.78 29.16 157.927 27.84 157.927 26.64C157.927 25.4667 157.753 24.6 157.407 24.04C157.087 23.4533 156.633 23.16 156.047 23.16ZM146.727 40.52C146.087 41.0267 145.447 41.5467 144.807 42.08C144.167 42.5867 143.527 43.1067 142.887 43.64L142.287 43.36C142.473 42.9867 142.62 42.6133 142.727 42.24C142.86 41.84 142.967 41.44 143.047 41.04L150.047 16.32C150.26 15.4133 150.22 14.7467 149.927 14.32C149.633 13.8933 148.833 13.68 147.527 13.68L147.727 12.84C149.193 12.8133 150.487 12.6667 151.607 12.4C152.727 12.1067 153.78 11.7067 154.767 11.2L146.727 40.52ZM166.963 39.6C166.749 40.3733 166.683 40.9867 166.763 41.44C166.843 41.8667 167.136 42.08 167.643 42.08C168.176 42.08 168.669 41.7867 169.123 41.2C169.603 40.5867 170.109 39.52 170.643 38L171.163 36.52H171.923L170.923 39.44C170.576 40.4533 170.149 41.2667 169.643 41.88C169.163 42.4667 168.629 42.8933 168.043 43.16C167.456 43.4267 166.816 43.56 166.123 43.56C165.243 43.56 164.589 43.3867 164.163 43.04C163.763 42.72 163.509 42.28 163.403 41.72C163.323 41.16 163.336 40.56 163.443 39.92C163.576 39.2533 163.736 38.6 163.923 37.96L170.443 16.32C170.709 15.4133 170.683 14.7467 170.363 14.32C170.043 13.8933 169.229 13.68 167.923 13.68L168.203 12.84C169.669 12.8133 170.963 12.6667 172.083 12.4C173.203 12.1067 174.283 11.7067 175.323 11.2L166.963 39.6ZM177.337 33.92C178.83 33.4133 180.177 32.92 181.377 32.44C182.603 31.9333 183.577 31.4 184.297 30.84C185.257 30.0667 186.017 29.1333 186.577 28.04C187.137 26.9467 187.417 25.7467 187.417 24.44C187.417 23.6667 187.363 23.1733 187.257 22.96C187.15 22.7467 186.99 22.64 186.777 22.64C186.11 22.64 185.39 22.9333 184.617 23.52C183.843 24.1067 183.083 24.92 182.337 25.96C181.59 26.9733 180.897 28.1333 180.257 29.44C179.643 30.7467 179.15 32.1467 178.777 33.64C178.403 35.1067 178.217 36.5733 178.217 38.04C178.217 39.4 178.47 40.3867 178.977 41C179.483 41.5867 180.15 41.88 180.977 41.88C181.937 41.88 182.95 41.5867 184.017 41C185.083 40.4133 186.123 39.3733 187.137 37.88L187.777 38.2C187.27 39.08 186.603 39.9333 185.777 40.76C184.95 41.5867 184.017 42.2667 182.977 42.8C181.963 43.3067 180.883 43.56 179.737 43.56C178.67 43.56 177.737 43.3467 176.937 42.92C176.137 42.4933 175.523 41.8667 175.097 41.04C174.67 40.1867 174.457 39.1467 174.457 37.92C174.457 36.7733 174.67 35.4933 175.097 34.08C175.523 32.64 176.123 31.2133 176.897 29.8C177.697 28.36 178.643 27.04 179.737 25.84C180.83 24.64 182.043 23.68 183.377 22.96C184.71 22.24 186.137 21.88 187.657 21.88C188.483 21.88 189.177 22.1067 189.737 22.56C190.323 22.9867 190.617 23.64 190.617 24.52C190.617 25.5867 190.297 26.5867 189.657 27.52C189.043 28.4267 188.217 29.2667 187.177 30.04C186.163 30.7867 185.057 31.4533 183.857 32.04C182.657 32.6267 181.483 33.1333 180.337 33.56C179.19 33.9867 178.177 34.3333 177.297 34.6L177.337 33.92ZM204.442 36.52C203.456 37.9067 202.856 39.0133 202.642 39.84C202.456 40.6667 202.616 41.2667 203.122 41.64C203.629 41.9867 204.429 42.1733 205.522 42.2L205.322 43C204.576 42.9467 203.802 42.92 203.002 42.92C202.202 42.8933 201.456 42.88 200.762 42.88C200.096 42.88 199.536 42.8933 199.082 42.92C198.629 42.92 198.189 42.9467 197.762 43L197.962 42.2C198.336 42.12 198.722 41.96 199.122 41.72C199.522 41.4533 199.962 41.08 200.442 40.6C200.922 40.12 201.429 39.4933 201.962 38.72L219.202 14.48C219.309 14.48 219.402 14.48 219.482 14.48C219.589 14.48 219.696 14.48 219.802 14.48L221.402 39.64C221.482 40.6 221.722 41.2667 222.122 41.64C222.549 41.9867 222.962 42.1733 223.362 42.2L223.202 43C222.669 42.9467 222.002 42.92 221.202 42.92C220.402 42.8933 219.616 42.88 218.842 42.88C217.882 42.88 216.976 42.8933 216.122 42.92C215.269 42.92 214.576 42.9467 214.042 43L214.202 42.2C215.482 42.1467 216.389 41.92 216.922 41.52C217.456 41.0933 217.696 40.2 217.642 38.84L216.562 19.08L216.842 19L204.442 36.52ZM207.642 31.48H219.322L219.002 32.28H206.922L207.642 31.48ZM233.038 38.76C232.798 39.72 232.692 40.44 232.718 40.92C232.745 41.4 232.972 41.72 233.398 41.88C233.825 42.04 234.492 42.1467 235.398 42.2L235.238 43C234.625 42.9467 233.852 42.92 232.918 42.92C232.012 42.8933 231.092 42.88 230.158 42.88C229.118 42.88 228.158 42.8933 227.278 42.92C226.398 42.92 225.665 42.9467 225.078 43L225.278 42.2C226.158 42.1467 226.838 42.04 227.318 41.88C227.825 41.72 228.225 41.4 228.518 40.92C228.812 40.44 229.078 39.72 229.318 38.76L234.598 18.92C234.865 17.9333 234.972 17.2133 234.918 16.76C234.865 16.28 234.625 15.96 234.198 15.8C233.798 15.6133 233.145 15.5067 232.238 15.48L232.438 14.68C232.972 14.7067 233.692 14.7333 234.598 14.76C235.505 14.7867 236.478 14.8 237.518 14.8C238.452 14.8 239.372 14.7867 240.278 14.76C241.212 14.7333 241.998 14.7067 242.638 14.68L242.438 15.48C241.532 15.5067 240.825 15.6133 240.318 15.8C239.812 15.96 239.412 16.28 239.118 16.76C238.852 17.2133 238.585 17.9333 238.318 18.92L233.038 38.76Z" fill="white"/>
<defs>
<linearGradient id="paint0_linear_3_6" x1="46" y1="5" x2="-9.5" y2="63.5" gradientUnits="userSpaceOnUse">
<stop stop-color="#FFB900"/>
<stop offset="1" stop-color="#973C00"/>
</linearGradient>
</defs>
</svg>
