<svg width="222" height="49" viewBox="0 0 222 49" fill="none" xmlns="http://www.w3.org/2000/svg">
<path d="M55.74 38C55.38 38 55.2 37.88 55.2 37.64C55.2 37.352 55.38 37.196 55.74 37.172L57.18 37.028C57.708 36.98 58.08 36.86 58.296 36.668C58.536 36.476 58.704 36.128 58.8 35.624L63.732 14.24C63.828 13.832 63.78 13.568 63.588 13.448C63.396 13.304 63.108 13.256 62.724 13.304L61.392 13.448C61.2 13.472 61.056 13.436 60.96 13.34C60.888 13.244 60.852 13.148 60.852 13.052C60.852 12.74 61.092 12.548 61.572 12.476C62.868 12.26 63.828 12.056 64.452 11.864C65.1 11.648 65.568 11.54 65.856 11.54C66.336 11.54 66.528 11.804 66.432 12.332L61.032 35.624C60.936 36.128 60.948 36.476 61.068 36.668C61.212 36.86 61.524 36.98 62.004 37.028L63.12 37.172C63.408 37.196 63.552 37.328 63.552 37.568C63.552 37.856 63.336 38 62.904 38H55.74ZM78.2749 38.324C77.6029 38.324 76.8829 38.252 76.1149 38.108C75.3709 37.964 74.6629 37.772 73.9909 37.532C73.3429 37.268 72.8269 36.968 72.4429 36.632C72.3229 36.512 72.2389 36.392 72.1909 36.272C72.1669 36.152 72.1789 35.972 72.2269 35.732L73.2349 30.08C73.3069 29.648 73.4989 29.432 73.8109 29.432C74.0989 29.432 74.2429 29.672 74.2429 30.152L74.2789 31.556C74.3269 33.572 74.6749 35.024 75.3229 35.912C75.9709 36.8 77.0269 37.244 78.4909 37.244C79.8349 37.244 80.9509 36.764 81.8389 35.804C82.7269 34.82 83.1709 33.512 83.1709 31.88C83.1709 30.824 82.8829 29.72 82.3069 28.568C81.7309 27.416 80.9269 26.264 79.8949 25.112C78.6709 23.744 77.7589 22.496 77.1589 21.368C76.5829 20.24 76.2949 19.052 76.2949 17.804C76.2949 16.82 76.5349 15.872 77.0149 14.96C77.4949 14.024 78.2149 13.256 79.1749 12.656C80.1589 12.032 81.4069 11.72 82.9189 11.72C85.0069 11.72 86.6029 12.188 87.7069 13.124C88.0429 13.388 88.1629 13.784 88.0669 14.312L87.0589 19.568C86.9869 19.928 86.8189 20.108 86.5549 20.108C86.2909 20.108 86.1349 19.904 86.0869 19.496L86.0509 18.74C85.9549 16.796 85.6789 15.32 85.2229 14.312C84.7909 13.28 83.9149 12.764 82.5949 12.764C81.6349 12.764 80.8669 12.98 80.2909 13.412C79.7149 13.844 79.2949 14.384 79.0309 15.032C78.7669 15.656 78.6349 16.28 78.6349 16.904C78.6349 17.6 78.7309 18.272 78.9229 18.92C79.1149 19.544 79.4389 20.216 79.8949 20.936C80.3749 21.632 81.0229 22.484 81.8389 23.492C82.9909 24.86 83.8909 26.168 84.5389 27.416C85.1869 28.664 85.5109 29.876 85.5109 31.052C85.5109 32.468 85.1869 33.728 84.5389 34.832C83.9149 35.912 83.0629 36.764 81.9829 37.388C80.9029 38.012 79.6669 38.324 78.2749 38.324ZM91.9487 38.324C90.6767 38.324 89.6567 37.832 88.8887 36.848C88.1207 35.84 87.7367 34.424 87.7367 32.6C87.7367 31.016 88.0127 29.444 88.5647 27.884C89.1407 26.324 89.8847 24.908 90.7967 23.636C91.7087 22.364 92.7047 21.344 93.7847 20.576C94.8887 19.808 95.9567 19.424 96.9887 19.424C98.1167 19.424 98.9207 19.7 99.4007 20.252C99.9047 20.78 100.157 21.5 100.157 22.412C100.157 23.492 99.7727 24.572 99.0047 25.652C98.2607 26.708 97.2047 27.656 95.8367 28.496C94.4927 29.336 92.9087 29.96 91.0847 30.368C90.5567 30.488 90.2807 30.788 90.2567 31.268C90.2327 31.436 90.2207 31.616 90.2207 31.808C90.2207 31.976 90.2207 32.144 90.2207 32.312C90.2207 33.68 90.4487 34.712 90.9047 35.408C91.3847 36.104 92.0327 36.452 92.8487 36.452C93.7607 36.452 94.6367 36.032 95.4767 35.192C96.3407 34.352 97.0607 33.164 97.6367 31.628C97.7087 31.412 97.8527 31.304 98.0687 31.304C98.2127 31.304 98.2967 31.364 98.3207 31.484C98.3687 31.604 98.3687 31.748 98.3207 31.916C97.5527 34.028 96.6167 35.624 95.5127 36.704C94.4327 37.784 93.2447 38.324 91.9487 38.324ZM90.6167 29C90.5687 29.168 90.5927 29.312 90.6887 29.432C90.8087 29.528 90.9527 29.552 91.1207 29.504C92.6087 29.096 93.8567 28.484 94.8647 27.668C95.8727 26.828 96.6287 25.892 97.1327 24.86C97.6607 23.828 97.9247 22.82 97.9247 21.836C97.9247 20.828 97.5287 20.324 96.7367 20.324C96.0407 20.324 95.2847 20.732 94.4687 21.548C93.6527 22.364 92.8967 23.432 92.2007 24.752C91.5047 26.072 90.9767 27.488 90.6167 29ZM104.932 38.324C103.612 38.324 102.52 37.784 101.656 36.704C100.792 35.6 100.36 34.196 100.36 32.492C100.36 30.884 100.612 29.312 101.116 27.776C101.644 26.216 102.34 24.812 103.204 23.564C104.092 22.292 105.064 21.284 106.12 20.54C107.2 19.796 108.28 19.424 109.36 19.424C110.512 19.424 111.484 19.736 112.276 20.36C112.396 20.456 112.468 20.54 112.492 20.612C112.516 20.66 112.504 20.78 112.456 20.972L111.484 25.688C111.412 26.024 111.256 26.192 111.016 26.192C110.752 26.192 110.596 26.012 110.548 25.652L110.368 23.096C110.296 21.992 110.128 21.272 109.864 20.936C109.624 20.6 109.264 20.432 108.784 20.432C108.112 20.432 107.428 20.768 106.732 21.44C106.036 22.088 105.388 22.976 104.788 24.104C104.212 25.208 103.744 26.444 103.384 27.812C103.048 29.156 102.88 30.524 102.88 31.916C102.88 34.94 103.864 36.452 105.832 36.452C106.768 36.452 107.608 36.02 108.352 35.156C109.12 34.292 109.828 32.948 110.476 31.124C110.548 30.884 110.716 30.764 110.98 30.764C111.124 30.764 111.208 30.824 111.232 30.944C111.256 31.04 111.232 31.244 111.16 31.556C110.92 32.876 110.488 34.04 109.864 35.048C109.24 36.056 108.496 36.86 107.632 37.46C106.792 38.036 105.892 38.324 104.932 38.324ZM117.985 38.324C116.497 38.324 115.321 37.712 114.457 36.488C113.593 35.24 113.161 33.56 113.161 31.448C113.161 29.888 113.413 28.388 113.917 26.948C114.421 25.508 115.081 24.224 115.897 23.096C116.737 21.968 117.661 21.08 118.669 20.432C119.701 19.76 120.733 19.424 121.765 19.424C123.253 19.424 124.429 20.036 125.293 21.26C126.157 22.484 126.589 24.164 126.589 26.3C126.589 27.86 126.337 29.36 125.833 30.8C125.329 32.24 124.657 33.524 123.817 34.652C123.001 35.78 122.077 36.68 121.045 37.352C120.037 38 119.017 38.324 117.985 38.324ZM117.913 37.46C118.681 37.46 119.425 37.088 120.145 36.344C120.889 35.6 121.561 34.616 122.161 33.392C122.761 32.168 123.241 30.812 123.601 29.324C123.961 27.812 124.141 26.3 124.141 24.788C124.141 21.788 123.361 20.288 121.801 20.288C121.057 20.288 120.313 20.66 119.569 21.404C118.825 22.124 118.153 23.096 117.553 24.32C116.977 25.544 116.509 26.912 116.149 28.424C115.789 29.912 115.609 31.412 115.609 32.924C115.609 35.948 116.377 37.46 117.913 37.46ZM129.256 37.532L132.676 23.168C132.796 22.64 132.808 22.232 132.712 21.944C132.64 21.632 132.424 21.476 132.064 21.476C131.632 21.476 131.152 21.8 130.624 22.448C130.12 23.072 129.544 24.272 128.896 26.048C128.8 26.36 128.632 26.516 128.392 26.516C128.032 26.516 127.936 26.3 128.104 25.868C128.632 24.212 129.184 22.916 129.76 21.98C130.36 21.044 130.96 20.384 131.56 20C132.16 19.616 132.712 19.424 133.216 19.424C134.008 19.424 134.572 19.724 134.908 20.324C135.244 20.9 135.256 21.86 134.944 23.204L134.044 27.092C134.02 27.26 134.056 27.356 134.152 27.38C134.248 27.404 134.332 27.344 134.404 27.2C135.34 25.256 136.24 23.72 137.104 22.592C137.968 21.44 138.784 20.624 139.552 20.144C140.32 19.664 141.016 19.424 141.64 19.424C142.528 19.424 143.176 19.784 143.584 20.504C143.992 21.224 143.992 22.328 143.584 23.816L140.848 34.256C140.68 34.928 140.668 35.432 140.812 35.768C140.956 36.104 141.22 36.272 141.604 36.272C142.084 36.272 142.552 35.96 143.008 35.336C143.488 34.688 143.98 33.476 144.484 31.7C144.556 31.436 144.712 31.304 144.952 31.304C145.144 31.304 145.252 31.376 145.276 31.52C145.324 31.664 145.324 31.832 145.276 32.024C144.82 33.656 144.328 34.94 143.8 35.876C143.272 36.788 142.732 37.424 142.18 37.784C141.652 38.144 141.112 38.324 140.56 38.324C139.696 38.324 139.048 37.964 138.616 37.244C138.184 36.524 138.16 35.408 138.544 33.896L141.316 23.456C141.58 22.52 141.616 21.872 141.424 21.512C141.256 21.152 141.004 20.972 140.668 20.972C140.14 20.972 139.54 21.308 138.868 21.98C138.196 22.628 137.512 23.528 136.816 24.68C136.12 25.808 135.436 27.092 134.764 28.532C134.092 29.972 133.48 31.472 132.928 33.032C132.4 34.592 131.968 36.116 131.632 37.604C131.56 37.868 131.392 38 131.128 38H129.652C129.316 38 129.184 37.844 129.256 37.532ZM149.361 38.324C148.473 38.324 147.789 37.952 147.309 37.208C146.829 36.464 146.589 35.372 146.589 33.932C146.589 32.564 146.781 31.196 147.165 29.828C147.549 28.436 148.077 27.116 148.749 25.868C149.421 24.62 150.177 23.516 151.017 22.556C151.881 21.596 152.781 20.84 153.717 20.288C154.677 19.712 155.625 19.424 156.561 19.424C157.209 19.424 157.773 19.592 158.253 19.928C158.589 20.144 158.793 20.072 158.865 19.712L160.017 14.96C160.137 14.528 160.137 14.228 160.017 14.06C159.921 13.892 159.705 13.796 159.369 13.772L158.289 13.664C157.929 13.64 157.773 13.484 157.821 13.196C157.869 12.98 158.037 12.848 158.325 12.8C159.189 12.656 159.957 12.488 160.629 12.296C161.301 12.08 161.841 11.804 162.249 11.468C162.441 11.324 162.621 11.252 162.789 11.252C163.077 11.252 163.185 11.432 163.113 11.792L158.001 33.932C157.641 35.492 157.881 36.272 158.721 36.272C159.273 36.272 159.765 35.9 160.197 35.156C160.653 34.412 161.109 33.26 161.565 31.7C161.637 31.436 161.793 31.304 162.033 31.304C162.201 31.304 162.309 31.376 162.357 31.52C162.405 31.664 162.405 31.832 162.357 32.024C161.901 34.28 161.265 35.9 160.449 36.884C159.657 37.844 158.721 38.324 157.641 38.324C156.705 38.324 156.033 37.928 155.625 37.136C155.241 36.344 155.205 35.264 155.517 33.896L155.913 32.24C155.961 32.072 155.925 31.976 155.805 31.952C155.709 31.928 155.625 31.988 155.553 32.132C154.401 34.388 153.309 35.984 152.277 36.92C151.245 37.856 150.273 38.324 149.361 38.324ZM150.225 36.488C150.801 36.488 151.437 36.14 152.133 35.444C152.829 34.748 153.513 33.848 154.185 32.744C154.881 31.64 155.517 30.452 156.093 29.18C156.669 27.908 157.125 26.684 157.461 25.508C157.821 24.332 158.001 23.336 158.001 22.52C158.001 21.056 157.485 20.324 156.453 20.324C155.829 20.324 155.169 20.612 154.473 21.188C153.777 21.74 153.105 22.496 152.457 23.456C151.833 24.416 151.257 25.508 150.729 26.732C150.225 27.932 149.817 29.192 149.505 30.512C149.193 31.808 149.037 33.08 149.037 34.328C149.037 35.168 149.145 35.744 149.361 36.056C149.601 36.344 149.889 36.488 150.225 36.488ZM168.497 38C168.161 38 167.993 37.88 167.993 37.64C167.993 37.376 168.233 37.208 168.713 37.136L169.433 37.028C169.961 36.956 170.321 36.836 170.513 36.668C170.729 36.476 170.885 36.128 170.981 35.624L175.877 14.456C175.973 14.048 175.985 13.736 175.913 13.52C175.841 13.304 175.529 13.148 174.977 13.052L174.257 12.908C173.945 12.836 173.789 12.704 173.789 12.512C173.789 12.224 174.005 12.08 174.437 12.08H181.457C183.449 12.08 184.973 12.62 186.029 13.7C187.085 14.78 187.613 16.136 187.613 17.768C187.613 19.28 187.217 20.684 186.425 21.98C185.657 23.252 184.577 24.284 183.185 25.076C181.817 25.868 180.209 26.264 178.361 26.264H176.237C175.853 26.264 175.601 26.468 175.481 26.876L173.465 35.48C173.345 36.008 173.369 36.368 173.537 36.56C173.729 36.752 174.125 36.884 174.725 36.956L176.453 37.172C176.669 37.196 176.777 37.316 176.777 37.532C176.777 37.844 176.561 38 176.129 38H168.497ZM176.309 23.384C176.165 24.008 176.225 24.5 176.489 24.86C176.777 25.196 177.365 25.364 178.253 25.364C179.453 25.364 180.473 25.112 181.313 24.608C182.177 24.104 182.873 23.456 183.401 22.664C183.953 21.848 184.349 20.984 184.589 20.072C184.853 19.136 184.985 18.248 184.985 17.408C184.985 16.088 184.637 15.02 183.941 14.204C183.245 13.388 182.225 12.98 180.881 12.98C179.417 12.98 178.577 13.46 178.361 14.42L176.309 23.384ZM190.829 38.324C189.341 38.324 188.165 37.712 187.301 36.488C186.437 35.24 186.005 33.56 186.005 31.448C186.005 29.888 186.257 28.388 186.761 26.948C187.265 25.508 187.925 24.224 188.741 23.096C189.581 21.968 190.505 21.08 191.513 20.432C192.545 19.76 193.577 19.424 194.609 19.424C196.097 19.424 197.273 20.036 198.137 21.26C199.001 22.484 199.433 24.164 199.433 26.3C199.433 27.86 199.181 29.36 198.677 30.8C198.173 32.24 197.501 33.524 196.661 34.652C195.845 35.78 194.921 36.68 193.889 37.352C192.881 38 191.861 38.324 190.829 38.324ZM190.757 37.46C191.525 37.46 192.269 37.088 192.989 36.344C193.733 35.6 194.405 34.616 195.005 33.392C195.605 32.168 196.085 30.812 196.445 29.324C196.805 27.812 196.985 26.3 196.985 24.788C196.985 21.788 196.205 20.288 194.645 20.288C193.901 20.288 193.157 20.66 192.413 21.404C191.669 22.124 190.997 23.096 190.397 24.32C189.821 25.544 189.353 26.912 188.993 28.424C188.633 29.912 188.453 31.412 188.453 32.924C188.453 35.948 189.221 37.46 190.757 37.46ZM204.367 38.324C203.575 38.324 202.735 38.204 201.847 37.964C200.983 37.724 200.323 37.424 199.867 37.064C199.699 36.92 199.627 36.704 199.651 36.416L200.443 31.7C200.491 31.388 200.635 31.232 200.875 31.232C201.139 31.232 201.271 31.4 201.271 31.736L201.343 33.464C201.391 34.832 201.715 35.84 202.315 36.488C202.939 37.112 203.695 37.424 204.583 37.424C205.351 37.424 206.011 37.184 206.563 36.704C207.115 36.2 207.391 35.468 207.391 34.508C207.391 33.956 207.307 33.452 207.139 32.996C206.971 32.516 206.707 32.012 206.347 31.484C205.987 30.932 205.495 30.272 204.871 29.504C204.055 28.448 203.443 27.548 203.035 26.804C202.651 26.036 202.459 25.244 202.459 24.428C202.459 22.916 202.927 21.704 203.863 20.792C204.823 19.88 206.035 19.424 207.499 19.424C208.147 19.424 208.771 19.52 209.371 19.712C209.995 19.904 210.511 20.192 210.919 20.576C211.135 20.744 211.207 20.96 211.135 21.224L210.127 26.048C210.055 26.36 209.911 26.516 209.695 26.516C209.479 26.516 209.347 26.348 209.299 26.012L209.191 24.284C209.095 22.844 208.903 21.812 208.615 21.188C208.351 20.564 207.787 20.252 206.923 20.252C206.155 20.252 205.531 20.516 205.051 21.044C204.571 21.572 204.331 22.208 204.331 22.952C204.331 23.744 204.547 24.476 204.979 25.148C205.411 25.796 205.999 26.624 206.743 27.632C207.727 28.928 208.387 29.96 208.723 30.728C209.083 31.496 209.263 32.276 209.263 33.068C209.263 34.076 209.035 34.976 208.579 35.768C208.147 36.56 207.559 37.184 206.815 37.64C206.071 38.096 205.255 38.324 204.367 38.324ZM214.727 38.324C213.911 38.324 213.275 38 212.819 37.352C212.363 36.704 212.291 35.66 212.603 34.22L215.591 21.188C215.663 20.828 215.519 20.648 215.159 20.648H213.791C213.455 20.648 213.287 20.492 213.287 20.18C213.287 20.012 213.347 19.88 213.467 19.784C213.587 19.688 213.731 19.64 213.899 19.64H215.195C215.747 19.64 216.071 19.388 216.167 18.884L217.031 15.032C217.103 14.768 217.271 14.636 217.535 14.636H219.011C219.347 14.636 219.479 14.792 219.407 15.104L218.507 19.1C218.435 19.46 218.579 19.64 218.939 19.64H220.991C221.399 19.64 221.603 19.796 221.603 20.108C221.603 20.468 221.351 20.648 220.847 20.648H218.903C218.375 20.648 218.051 20.9 217.931 21.404L214.907 34.58C214.787 35.108 214.799 35.528 214.943 35.84C215.111 36.128 215.387 36.272 215.771 36.272C216.323 36.272 216.827 35.96 217.283 35.336C217.763 34.712 218.267 33.524 218.795 31.772C218.891 31.46 219.047 31.304 219.263 31.304C219.431 31.304 219.539 31.376 219.587 31.52C219.635 31.664 219.599 31.928 219.479 32.312C219.023 33.944 218.519 35.192 217.967 36.056C217.439 36.92 216.899 37.52 216.347 37.856C215.795 38.168 215.255 38.324 214.727 38.324Z" fill="#F5F5F5"/>
<rect x="1" y="1" width="46" height="46" rx="10" fill="url(#paint0_radial_8_17)"/>
<rect x="0.5" y="0.5" width="47" height="47" rx="10.5" stroke="url(#paint1_linear_8_17)" stroke-opacity="0.8"/>
<path d="M32.308 26.8468C32.308 23.151 35.304 15.7479 39 15.7479L39 15.6932C36.0419 15.6932 33.2049 16.8682 31.1132 18.9599C29.0215 21.0515 27.8463 23.8884 27.8462 26.8466C27.8462 28.6214 27.1411 30.3236 25.8861 31.5787C24.6311 32.8338 22.9288 33.5389 21.154 33.5389C19.3791 33.5393 17.6766 32.8345 16.4214 31.5797C15.1661 30.3249 14.4607 28.6228 14.4603 26.848C14.46 25.073 15.1648 23.3706 16.4196 22.1153C17.6744 20.86 19.3765 20.1546 21.1513 20.1542C22.6161 20.1542 24.0665 19.8657 25.4197 19.3051C26.773 18.7445 28.0026 17.9229 29.0383 16.8871C30.074 15.8513 30.8955 14.6217 31.456 13.2684C32.0165 11.9152 32.3049 10.4647 32.3049 9L32.2506 9C32.2506 12.6953 24.8507 15.6914 21.1541 15.6927L21.1541 15.692C18.948 15.692 16.7916 16.3461 14.9573 17.5717C13.1231 18.7973 11.6934 20.5392 10.8492 22.5773C10.0049 24.6154 9.78391 26.858 10.2143 29.0217C10.6446 31.1853 11.7068 33.1727 13.2666 34.7327C14.8264 36.2926 16.8138 37.355 18.9775 37.7855C21.141 38.2161 23.3836 37.9952 25.4218 37.1512C27.46 36.3071 29.202 34.8776 30.4278 33.0435C31.6535 31.2092 32.3078 29.0528 32.308 26.8468Z" fill="url(#paint2_linear_8_17)"/>
<path d="M37.0605 16.1191C36.7708 16.3058 36.4912 16.529 36.2236 16.7803C35.3961 17.5574 34.6602 18.6246 34.0469 19.7959C32.8224 22.1344 32.0577 24.9485 32.0576 26.8467C32.0575 29.0031 31.4179 31.1112 30.2197 32.9043C29.0215 34.6973 27.3186 36.0948 25.3262 36.9199C23.3337 37.7451 21.1414 37.9609 19.0264 37.54C16.9112 37.1191 14.9683 36.0806 13.4434 34.5557C11.9187 33.0306 10.8806 31.0876 10.46 28.9727C10.0393 26.8575 10.2547 24.6652 11.0801 22.6729C11.9054 20.6805 13.3036 18.9774 15.0967 17.7793C16.7775 16.6563 18.7351 16.0239 20.75 15.9492L21.1543 15.9424C23.0527 15.9417 25.8663 15.1776 28.2041 13.9531C29.3752 13.3397 30.4419 12.603 31.2187 11.7754C31.4694 11.5084 31.6916 11.2295 31.8779 10.9404C31.7399 11.7038 31.5229 12.4527 31.2246 13.1729C30.6767 14.4957 29.8737 15.6975 28.8613 16.71C27.8489 17.7225 26.6471 18.5262 25.3242 19.0742C24.0014 19.6222 22.5833 19.9043 21.1514 19.9043C19.3103 19.9047 17.5448 20.6364 16.2432 21.9385C14.9416 23.2406 14.2098 25.0065 14.21 26.8477C14.2104 28.6888 14.9429 30.4551 16.2451 31.7568C17.5472 33.0583 19.3133 33.7895 21.1543 33.7891C22.9952 33.789 24.7607 33.0575 26.0625 31.7559C27.3644 30.4539 28.0957 28.6878 28.0957 26.8467C28.0958 23.9548 29.2452 21.1815 31.29 19.1367C32.8717 17.5551 34.8895 16.5116 37.0605 16.1191Z" stroke="#7E2A0C" stroke-opacity="0.5" stroke-width="0.5"/>
<defs>
<radialGradient id="paint0_radial_8_17" cx="0" cy="0" r="1" gradientUnits="userSpaceOnUse" gradientTransform="translate(24 24) rotate(90) scale(34.73)">
<stop stop-color="#FF6900"/>
<stop offset="1" stop-color="#9F2D00"/>
</radialGradient>
<linearGradient id="paint1_linear_8_17" x1="24" y1="1" x2="24" y2="47" gradientUnits="userSpaceOnUse">
<stop stop-color="#FFB86A"/>
<stop offset="1" stop-color="#FF6900"/>
</linearGradient>
<linearGradient id="paint2_linear_8_17" x1="37.7917" y1="10.2083" x2="4.26041" y2="45.5521" gradientUnits="userSpaceOnUse">
<stop stop-color="#FFB86A"/>
<stop offset="1" stop-color="#FFD6A7"/>
</linearGradient>
</defs>
</svg>
