<svg width="34" height="34" viewBox="0 0 34 34" fill="none" xmlns="http://www.w3.org/2000/svg">
<rect x="1" y="1" width="32" height="32" rx="7" fill="url(#paint0_radial_8_13)"/>
<rect x="0.5" y="0.5" width="33" height="33" rx="7.5" stroke="url(#paint1_linear_8_13)" stroke-opacity="0.8"/>
<path d="M23.5186 18.4152C23.5186 15.8442 25.6028 10.6942 28.1739 10.6942L28.1739 10.6561C26.1161 10.6561 24.1426 11.4735 22.6874 12.9286C21.2323 14.3837 20.4148 16.3572 20.4147 18.415C20.4147 19.6497 19.9242 20.8338 19.0512 21.7069C18.1781 22.58 16.994 23.0705 15.7593 23.0705C14.5246 23.0708 13.3403 22.5805 12.4671 21.7076C11.5938 20.8347 11.1031 19.6506 11.1028 18.416C11.1026 17.1812 11.5929 15.9969 12.4658 15.1237C13.3387 14.2504 14.5228 13.7597 15.7575 13.7595C16.7764 13.7594 17.7854 13.5587 18.7268 13.1688C19.6682 12.7788 20.5235 12.2072 21.244 11.4867C21.9645 10.7662 22.536 9.91077 22.9259 8.96936C23.3158 8.02795 23.5165 7.01896 23.5164 6L23.4787 6C23.4787 8.57065 18.3309 10.6549 15.7594 10.6558L15.7594 10.6553C14.2247 10.6553 12.7246 11.1104 11.4486 11.9629C10.1726 12.8155 9.17805 14.0273 8.59078 15.4451C8.0034 16.8629 7.84968 18.423 8.14908 19.9281C8.44839 21.4332 9.18736 22.8158 10.2724 23.901C11.3575 24.9862 12.74 25.7252 14.2452 26.0247C15.7503 26.3242 17.3104 26.1706 18.7282 25.5834C20.1461 24.9962 21.3579 24.0018 22.2106 22.7259C23.0633 21.4499 23.5185 19.9498 23.5186 18.4152Z" fill="url(#paint2_linear_8_13)"/>
<path d="M26.4932 11.0986C26.3905 11.1795 26.2885 11.2645 26.1905 11.3564C25.6065 11.9048 25.0894 12.6551 24.6602 13.4746C23.8044 15.1092 23.2687 17.0793 23.2686 18.415C23.2685 19.9001 22.8281 21.3521 22.003 22.5869C21.1779 23.8216 20.0049 24.7843 18.6329 25.3525C17.2607 25.9208 15.7506 26.0691 14.294 25.7793C12.8374 25.4895 11.4994 24.7746 10.4493 23.7246C9.39923 22.6743 8.68428 21.3355 8.39461 19.8789C8.10498 18.4225 8.2531 16.9129 8.82137 15.541C9.38967 14.1691 10.3523 12.996 11.587 12.1709C12.8219 11.3458 14.2746 10.9062 15.7598 10.9063C17.0959 10.9057 19.0653 10.3686 20.6993 9.5127C21.5184 9.0836 22.2684 8.56723 22.8165 7.9834C22.9086 7.88529 22.9934 7.78262 23.0743 7.67969C22.9809 8.08652 22.8559 8.48656 22.6954 8.87402C22.3181 9.78493 21.7646 10.6123 21.0675 11.3096C20.3702 12.0069 19.542 12.5601 18.6309 12.9375C17.7201 13.3148 16.7439 13.5097 15.7579 13.5098L15.7569 13.5098C14.4561 13.5102 13.2088 14.0272 12.2891 14.9473C11.4269 15.8099 10.9184 16.9603 10.8585 18.1729L10.8526 18.416C10.8529 19.717 11.3699 20.965 12.2901 21.8848C13.2101 22.8044 14.4581 23.3205 15.7589 23.3203C17.0598 23.3203 18.3077 22.8036 19.2276 21.8838C20.1476 20.9638 20.6651 19.716 20.6651 18.415C20.6652 16.4235 21.4561 14.5136 22.8643 13.1055C23.8693 12.1006 25.13 11.4118 26.4932 11.0986Z" stroke="#7E2A0C" stroke-opacity="0.5" stroke-width="0.5"/>
<defs>
<radialGradient id="paint0_radial_8_13" cx="0" cy="0" r="1" gradientUnits="userSpaceOnUse" gradientTransform="translate(17 17) rotate(90) scale(24.16)">
<stop stop-color="#FF6900"/>
<stop offset="1" stop-color="#9F2D00"/>
</radialGradient>
<linearGradient id="paint1_linear_8_13" x1="17" y1="1" x2="17" y2="33" gradientUnits="userSpaceOnUse">
<stop stop-color="#FFB86A"/>
<stop offset="1" stop-color="#FF6900"/>
</linearGradient>
<linearGradient id="paint2_linear_8_13" x1="27.3333" y1="6.84058" x2="4.00724" y2="31.4275" gradientUnits="userSpaceOnUse">
<stop stop-color="#FFB86A"/>
<stop offset="1" stop-color="#FFD6A7"/>
</linearGradient>
</defs>
</svg>
